<svg xmlns="http://www.w3.org/2000/svg" viewBox="0 0 64 64">
  <!-- фон -->
  <rect width="64" height="64" rx="16" fill="#f3f0ff"/>
  <!-- уши -->
  <path d="M14 26 L10 8 L22 18 Z" fill="#ffcc80"/>
  <path d="M50 26 L54 8 L42 18 Z" fill="#ffcc80"/>
  <!-- голова -->
  <circle cx="32" cy="32" r="20" fill="#ffcc80"/>
  <!-- внутреннее пятно мордочки -->
  <ellipse cx="32" cy="36" rx="14" ry="10" fill="#ffe6bf"/>
  <!-- глаза -->
  <circle cx="24" cy="30" r="3.2" fill="#3e2723"/>
  <circle cx="40" cy="30" r="3.2" fill="#3e2723"/>
  <!-- блики в глазах -->
  <circle cx="23.3" cy="29.3" r="0.8" fill="#ffffff"/>
  <circle cx="39.3" cy="29.3" r="0.8" fill="#ffffff"/>
  <!-- нос -->
  <path d="M30 34 L34 34 L32 36.5 Z" fill="#ff8a80"/>
  <!-- рот -->
  <path d="M32 36.5 C 31 38 30 39 28.5 39.5" fill="none" stroke="#5d4037" stroke-width="1.5" stroke-linecap="round"/>
  <path d="M32 36.5 C 33 38 34 39 35.5 39.5" fill="none" stroke="#5d4037" stroke-width="1.5" stroke-linecap="round"/>
  <!-- усы слева -->
  <path d="M20 35 H27" stroke="#5d4037" stroke-width="1.2" stroke-linecap="round"/>
  <path d="M20 38 H27" stroke="#5d4037" stroke-width="1.2" stroke-linecap="round"/>
  <!-- усы справа -->
  <path d="M37 35 H44" stroke="#5d4037" stroke-width="1.2" stroke-linecap="round"/>
  <path d="M37 38 H44" stroke="#5d4037" stroke-width="1.2" stroke-linecap="round"/>
</svg>
